<?xml version="1.0" encoding="utf-8"?>
<!-- Generator: Adobe Illustrator 16.0.0, SVG Export Plug-In . SVG Version: 6.00 Build 0)  -->
<!DOCTYPE svg PUBLIC "-//W3C//DTD SVG 1.1//EN" "http://www.w3.org/Graphics/SVG/1.1/DTD/svg11.dtd" [
	<!ENTITY ns_extend "http://ns.adobe.com/Extensibility/1.0/">
	<!ENTITY ns_ai "http://ns.adobe.com/AdobeIllustrator/10.0/">
	<!ENTITY ns_graphs "http://ns.adobe.com/Graphs/1.0/">
	<!ENTITY ns_vars "http://ns.adobe.com/Variables/1.0/">
	<!ENTITY ns_imrep "http://ns.adobe.com/ImageReplacement/1.0/">
	<!ENTITY ns_sfw "http://ns.adobe.com/SaveForWeb/1.0/">
	<!ENTITY ns_custom "http://ns.adobe.com/GenericCustomNamespace/1.0/">
	<!ENTITY ns_adobe_xpath "http://ns.adobe.com/XPath/1.0/">
]>
<svg version="1.1" id="Warstwa_1" xmlns:x="&ns_extend;" xmlns:i="&ns_ai;" xmlns:graph="&ns_graphs;"
	 xmlns="http://www.w3.org/2000/svg" xmlns:xlink="http://www.w3.org/1999/xlink" x="0px" y="0px" width="93.972px"
	 height="157.827px" viewBox="0 0 93.972 157.827" enable-background="new 0 0 93.972 157.827" xml:space="preserve">
<metadata>
	<sfw  xmlns="&ns_sfw;">
		<slices></slices>
		<sliceSourceBounds  height="157.827" width="93.972" y="-131.606" x="61.354" bottomLeftOrigin="true"></sliceSourceBounds>
	</sfw>
</metadata>
<g id="layer11" inkscape:groupmode="layer" sodipodi:insensitive="true" inkscape:label="head">
	
		<g id="g3243" transform="rotate(9.2025338,126.98836,189.57245)" inkscape:transform-center-x="-0.41853203" inkscape:transform-center-y="-21.316675">
		<path id="path899-9" sodipodi:nodetypes="cccccc" fill="#F7B282" d="M-22.32,45.343c-1.546,26.521,8.399,55.165,13.887,82.986
			c8.898,22.886,31.261,28.006,47.911,33.277c21.313-11.544,34.424-26.954,36.449-47.428c-2.076-27.212-1.394-55.011-9.855-80.859
			C11.032,10.546-2.281,28.934-22.32,45.343L-22.32,45.343z"/>
		<path id="path901-8" sodipodi:nodetypes="ccccccccccccccc" fill="#542610" d="M74.014,84.228l-2.864,24.945
			c-16.329-5.801-27.632-7.053-39.008-6.413c-15.406,3.521-27.42,10.089-37.236,17.851l-10.313-23.367
			c4.108,20.557,8.154,39.949,14.006,60.935c34.005,19.628,48.46,19.474,78.633-10.18C77.466,126.636,75.705,105.64,74.014,84.228z
			 M33.324,114.232c14.229,5.649,23.663,3.74,31.077,4.221c-1.815,5.477-1.946,6.186-1.567,14.421
			c-27.667-6.548-30.976-1.402-50.709,5.586c-3.584-5.25-5.913-7.116-9.776-11.392C16.464,122.96,24.535,121.519,33.324,114.232z"/>
		<path id="path906-1" sodipodi:nodetypes="cccccc" fill="#542610" d="M-22.986,39.342c-0.296,4.078-1.635,8.423-0.139,13.904
			c11.163,8.395,37.181,4.691,92.762-6.315c0.639-6.658-1.285-8.627-1.943-12.802C63.429,20.77,58.467,14.18,39.507,13.27
			C17.111,12.556-3.297,20.332-22.986,39.342L-22.986,39.342z"/>
	</g>
</g>
</svg>
