<?xml version="1.0" encoding="utf-8"?>
<!-- Generator: Adobe Illustrator 16.0.0, SVG Export Plug-In . SVG Version: 6.00 Build 0)  -->
<!DOCTYPE svg PUBLIC "-//W3C//DTD SVG 1.1//EN" "http://www.w3.org/Graphics/SVG/1.1/DTD/svg11.dtd" [
	<!ENTITY ns_extend "http://ns.adobe.com/Extensibility/1.0/">
	<!ENTITY ns_ai "http://ns.adobe.com/AdobeIllustrator/10.0/">
	<!ENTITY ns_graphs "http://ns.adobe.com/Graphs/1.0/">
	<!ENTITY ns_vars "http://ns.adobe.com/Variables/1.0/">
	<!ENTITY ns_imrep "http://ns.adobe.com/ImageReplacement/1.0/">
	<!ENTITY ns_sfw "http://ns.adobe.com/SaveForWeb/1.0/">
	<!ENTITY ns_custom "http://ns.adobe.com/GenericCustomNamespace/1.0/">
	<!ENTITY ns_adobe_xpath "http://ns.adobe.com/XPath/1.0/">
]>
<svg version="1.1"
	 id="svg8" xmlns:x="&ns_extend;" xmlns:i="&ns_ai;" xmlns:graph="&ns_graphs;" inkscape:export-ydpi="241.905" inkscape:export-xdpi="241.905" inkscape:export-filename="C:\Users\260862\Desktop\bartender.png" inkscape:version="1.0 (4035a4fb49, 2020-05-01)" sodipodi:docname="innkeeper_layers.svg" xmlns:dc="http://purl.org/dc/elements/1.1/" xmlns:cc="http://creativecommons.org/ns#" xmlns:rdf="http://www.w3.org/1999/02/22-rdf-syntax-ns#" xmlns:svg="http://www.w3.org/2000/svg" xmlns:sodipodi="http://sodipodi.sourceforge.net/DTD/sodipodi-0.dtd" xmlns:inkscape="http://www.inkscape.org/namespaces/inkscape"
	 xmlns="http://www.w3.org/2000/svg" xmlns:xlink="http://www.w3.org/1999/xlink" x="0px" y="0px" width="595.275px"
	 height="841.89px" viewBox="0 0 595.275 841.89" enable-background="new 0 0 595.275 841.89" xml:space="preserve">
<metadata  id="metadata5">
	<rdf:RDF>
		<cc:Work  rdf:about="">
			<dc:format>image/svg+xml</dc:format>
			<dc:type  rdf:resource="http://purl.org/dc/dcmitype/StillImage"></dc:type>
			<dc:title></dc:title>
		</cc:Work>
	</rdf:RDF>
	<sfw  xmlns="&ns_sfw;">
		<slices></slices>
		<sliceSourceBounds  height="526.654" width="1663.738" y="-174.34" x="-3.829" bottomLeftOrigin="true"></sliceSourceBounds>
	</sfw>
</metadata>
<sodipodi:namedview  inkscape:guide-bbox="true" inkscape:pageopacity="0.0" inkscape:pageshadow="2" inkscape:document-units="mm" inkscape:object-nodes="true" inkscape:current-layer="layer9" inkscape:window-y="-9" inkscape:snap-global="false" inkscape:window-maximized="1" inkscape:document-rotation="0" inkscape:window-width="1920" inkscape:snap-others="true" inkscape:window-height="1001" inkscape:window-x="-9" showguides="true" id="base" pagecolor="#ffffff" bordercolor="#666666" borderopacity="1.0" inkscape:zoom="0.70160554" inkscape:cx="204.49408" inkscape:cy="526.33185" showgrid="false">
	</sodipodi:namedview>
<g id="layer1" inkscape:groupmode="layer" sodipodi:insensitive="true" inkscape:label="torso">
	<path id="path895-3" sodipodi:nodetypes="cccccccc" fill="#FFB380" d="M272.375,146.317c10.807-11.482,7.675-11.45,12.896-25.187
		l41.722,0.221c4.814,9.59-1.246,20.424,30.055,32.993c161.758,201.066-62.466,2.191,50.746,97.998L358.118,421.13l-108.214,1.073
		C212.467,211.783,157.745,235.953,272.375,146.317L272.375,146.317z"/>
	
		<rect id="rect1426-4-1-3-4" x="283.731" y="233.225" transform="matrix(-0.8812 0.4727 -0.4727 -0.8812 694.58 295.3266)" opacity="0.99" fill="#E6E6E6" enable-background="new    " width="52.911" height="3.402"/>
	<path id="path1422-5" sodipodi:nodetypes="cccccccccc" fill="#E6E6E6" d="M257.11,153.19c9.641,18.913,13.81,38.348,26.205,46.626
		c1.388,31.75,11.632,53.545,22.945,75.37c11.733-19.631,20.273-46.801,23.482-77.798c8.4-5.53,20.828-27.938,21.438-45.935
		l8.284,4.009c117.912,31.081,52.958,80.443,6.948,271.653l-117.587,1.604c-37.806-166.526-120.055-231.4,1.203-272.722
		L257.11,153.19z"/>
	<path id="path1652-5" sodipodi:nodetypes="ccccc" d="M249.033,436.648c39.36,3.305,72.777,2.9,117.779-1.619l0.852-9.355
		l-119.938,0.088L249.033,436.648z"/>
	
		<rect id="rect893-2" x="294.256" y="428.22" opacity="0.99" fill="#AA8800" enable-background="new    " width="26.516" height="7.576"/>
	
		<rect id="rect1426-4-1-7" x="280.951" y="236.083" transform="matrix(-0.8941 -0.448 0.448 -0.8941 475.7296 588.0808)" opacity="0.99" fill="#E6E6E6" enable-background="new    " width="52.913" height="3.402"/>
	
		<rect id="rect1426-6" x="279.628" y="203.013" transform="matrix(-0.9787 -0.2053 0.2053 -0.9787 563.6276 467.9003)" opacity="0.99" fill="#E6E6E6" enable-background="new    " width="52.912" height="3.402"/>
	
		<rect id="rect1426-7-9" x="280.764" y="202.446" transform="matrix(-0.9724 0.2331 -0.2331 -0.9724 653.5677 331.0413)" opacity="0.99" fill="#E6E6E6" enable-background="new    " width="52.911" height="3.402"/>
	
		<rect id="rect1426-4-6" x="278.933" y="216.997" transform="matrix(-0.9524 -0.3048 0.3048 -0.9524 529.5837 520.0734)" opacity="0.99" fill="#E6E6E6" enable-background="new    " width="52.911" height="3.401"/>
	
		<rect id="rect1426-7-7-9" x="282.712" y="216.807" transform="matrix(-0.9509 0.3096 -0.3096 -0.9509 670.7968 330.5588)" opacity="0.99" fill="#E6E6E6" enable-background="new    " width="52.911" height="3.402"/>
	<g id="g3248" transform="translate(-124.24635,-7.9248391)">
		<path id="path1654" sodipodi:nodetypes="ccccccccccc" fill="#6C6753" d="M364.884,165.141l15.53,146.89
			c33.113,7.373,68.715,7.187,98.909-2.527l10.095-145.47l15.525,0.466l-8,272.142l17.994,219.068
			c-43.687-12.9-111.09-14.316-163.565-2.541l16.226-216.002l-17.127-270.351L364.884,165.141z"/>
		<path id="path1656" sodipodi:nodetypes="ccccc" fill="#2B1100" d="M367.032,433.338l1.117,11.754l129.35,0.543l1.64-13.525
			L367.032,433.338z"/>
		<path id="path1681" fill="#2B1100" d="M468.249,443.846l-15.081,15.154l10.599,6.4l9.401-18.92l15.157,15.836l4.518-7.191
			l-12.879-11.686l-10.201,1.158L468.249,443.846z"/>
	</g>
	
		<rect id="rect1426-4-1-7-1" x="1799.177" y="273.132" transform="matrix(-0.8941 -0.448 0.448 -0.8941 3334.7324 1338.3562)" opacity="0.99" fill="#E6E6E6" enable-background="new    " width="52.911" height="3.401"/>
</g>
</svg>
