<?xml version="1.0" encoding="utf-8"?>
<!-- Generator: Adobe Illustrator 16.0.0, SVG Export Plug-In . SVG Version: 6.00 Build 0)  -->
<!DOCTYPE svg PUBLIC "-//W3C//DTD SVG 1.1//EN" "http://www.w3.org/Graphics/SVG/1.1/DTD/svg11.dtd" [
	<!ENTITY ns_extend "http://ns.adobe.com/Extensibility/1.0/">
	<!ENTITY ns_ai "http://ns.adobe.com/AdobeIllustrator/10.0/">
	<!ENTITY ns_graphs "http://ns.adobe.com/Graphs/1.0/">
	<!ENTITY ns_vars "http://ns.adobe.com/Variables/1.0/">
	<!ENTITY ns_imrep "http://ns.adobe.com/ImageReplacement/1.0/">
	<!ENTITY ns_sfw "http://ns.adobe.com/SaveForWeb/1.0/">
	<!ENTITY ns_custom "http://ns.adobe.com/GenericCustomNamespace/1.0/">
	<!ENTITY ns_adobe_xpath "http://ns.adobe.com/XPath/1.0/">
]>
<svg version="1.1" id="Warstwa_1" xmlns:x="&ns_extend;" xmlns:i="&ns_ai;" xmlns:graph="&ns_graphs;"
	 xmlns="http://www.w3.org/2000/svg" xmlns:xlink="http://www.w3.org/1999/xlink" x="0px" y="0px" width="113.94px"
	 height="418.265px" viewBox="0 0 113.94 418.265" enable-background="new 0 0 113.94 418.265" xml:space="preserve">
<metadata>
	<sfw  xmlns="&ns_sfw;">
		<slices></slices>
		<sliceSourceBounds  height="418.265" width="113.94" y="-267.026" x="51.2" bottomLeftOrigin="true"></sliceSourceBounds>
	</sfw>
</metadata>
<g id="layer9" inkscape:groupmode="layer" sodipodi:insensitive="true" inkscape:label="left_leg">
	
		<g id="g3238" transform="rotate(-5.2002938,38.393083,-86.839417)" inkscape:transform-center-x="3.9304165" inkscape:transform-center-y="69.07517">
		<g id="g3217">
			
				<path id="path3150" sodipodi:nodetypes="ccccc" inkscape:transform-center-x="4.9162982" inkscape:transform-center-y="55.295672" fill="#502D17" d="
				M-11.862,360.62l28.537,3.358l86.559-330.865c6.165-30.104-76.52-45.115-81.108-13.552L-11.862,360.62z"/>
			<path id="path855-3" sodipodi:nodetypes="cccccccc" fill="#28150D" d="M-15.556,310.232l1.133,55.028l-25.482,26.093
				c-7.303,10.502-6.411,17.183,3.679,21.975c19.178,2.718,24.338,1.058,33.565-1.952c11.255-7.613,20.013-16.455,21.401-25.695
				l15.444-67.689C24.064,319.676-0.068,318.557-15.556,310.232z"/>
			<path id="path1685-96" sodipodi:nodetypes="ccccc" fill="#251D1D" d="M8.167,170.329c1.413,10.039,30.369,16.861,46.503,13.728
				l-1.631,3.75c-13.311,7.594-36.923,0.358-45.25-11.589L8.167,170.329z"/>
		</g>
		<path id="path1614-0" sodipodi:nodetypes="ccccc" fill="#010202" stroke="#010202" stroke-width="0.2646" d="M-14.05,359.32
			c9.236,5.404,21.71,7.956,37.136,5.18l1.872-7.325c-19.911,2.234-34.23-2.645-39.373-7.484L-14.05,359.32z"/>
		<path id="path1614-5-7" sodipodi:nodetypes="ccccc" fill="#010202" stroke="#010202" stroke-width="0.2646" d="M-14.653,341.901
			c9.236,5.404,26.251,8.753,41.677,5.978l1.812-8.215c-19.911,2.236-38.711-2.552-43.853-7.392L-14.653,341.901z"/>
	</g>
</g>
</svg>
